<svg xmlns="http://www.w3.org/2000/svg" viewBox="0 0 64 64">
  <rect width="64" height="64" rx="12" fill="#1b1d22"/>
  <g transform="matrix(0.04894,0,0,-0.04894,17.059,47.017)" fill="#e8833a">
    <path d="M615 -94Q614 -99 616.5 -102.0Q619 -105 616 -110Q613 -124 608.0 -122.0Q603 -120 601 -117Q599 -118 597.0 -113.5Q595 -109 593 -108Q582 -102 576.5 -102.0Q571 -102 569 -100Q572 -112 564.5 -112.5Q557 -113 553 -108Q548 -99 543 -96Q535 -84 521 -84Q516 -78 514 -74Q505 -70 504.0 -71.5Q503 -73 500 -72Q498 -65 498 -59Q487 -54 479.5 -53.0Q472 -52 473 -44Q470 -45 468.5 -47.5Q467 -50 463 -50Q455 -46 454.0 -48.5Q453 -51 452 -48Q444 -42 435.0 -39.0Q426 -36 421 -34Q417 -23 417.5 -21.0Q418 -19 418 -16Q413 -18 409.0 -23.5Q405 -29 397 -25Q392 -16 386.5 -16.0Q381 -16 375 -15Q363 -20 361 -16Q362 -6 360.0 -5.5Q358 -5 358 -3Q356 10 359 15Q355 25 353.5 25.5Q352 26 351 28Q349 38 350.0 42.5Q351 47 353 51Q349 69 344 73Q330 73 332.5 79.0Q335 85 334 91L325 106Q318 116 320.5 119.0Q323 122 323 127Q320 128 317.5 127.5Q315 127 312 129Q308 139 306.5 139.0Q305 139 303 141Q296 148 299 156Q298 159 296.0 161.5Q294 164 296 169Q291 171 286.5 171.0Q282 171 280 175Q279 180 281.0 183.0Q283 186 284 190Q272 199 267.5 202.5Q263 206 261 214Q261 219 261.5 223.0Q262 227 262 232Q260 236 258.0 237.5Q256 239 254 241Q253 246 247 252Q246 259 247.5 261.0Q249 263 250 266Q245 270 237 268Q230 272 231.0 279.0Q232 286 234 291Q233 306 234 308Q232 310 228.0 309.0Q224 308 222 310Q218 308 217.5 304.0Q217 300 213 298Q218 290 213.5 285.5Q209 281 204 279Q190 276 187 269Q191 263 188 256Q195 244 190 239Q193 230 194.0 227.5Q195 225 196 220Q195 215 192.5 212.0Q190 209 189 204Q190 200 192.5 196.5Q195 193 196 188Q196 184 195.0 181.0Q194 178 193 174Q195 171 197.5 169.0Q200 167 201 162Q196 150 195.5 142.0Q195 134 191 129Q194 118 193.5 116.0Q193 114 193 112Q195 109 195.5 104.5Q196 100 194 98Q193 86 191.5 84.0Q190 82 188 80Q190 68 188.5 66.5Q187 65 185 62Q188 54 195.5 49.0Q203 44 205 35Q193 28 189 22Q190 17 191.5 12.5Q193 8 195 3Q194 -2 194.0 -6.0Q194 -10 189 -12Q183 -12 181.0 -11.0Q179 -10 175 -8Q170 -8 167.5 -6.0Q165 -4 162 -2Q158 -4 155.0 -6.5Q152 -9 147 -11Q137 -7 131 -13Q126 -12 123.5 -15.0Q121 -18 116 -17Q112 -6 108.5 -6.5Q105 -7 101.0 -7.5Q97 -8 93.5 -8.0Q90 -8 88 -4Q82 -5 78.5 -7.5Q75 -10 69 -11Q56 -8 50 -10Q41 -7 39.5 -9.5Q38 -12 33 -10Q27 -15 14 -18Q9 -16 2.0 -16.5Q-5 -17 -7 -13Q2 -2 5.0 2.5Q8 7 14 8Q25 9 24.5 12.5Q24 16 23 18Q24 22 26.0 23.5Q28 25 29 29Q37 36 39.0 42.0Q41 48 46 50Q50 51 53.5 50.5Q57 50 59 52Q62 58 66 62Q69 73 71.0 74.0Q73 75 75 77Q75 91 73 94Q74 113 73.5 122.5Q73 132 73 141Q72 145 69.5 146.5Q67 148 65 151Q65 156 67.5 157.0Q70 158 69 162Q72 171 71.0 177.0Q70 183 75 187Q71 193 74 198Q70 210 68.0 211.0Q66 212 67 216Q78 227 74.0 235.0Q70 243 76 249Q74 253 73.0 256.0Q72 259 71 263Q70 273 71.5 281.0Q73 289 72 298Q71 310 74.5 312.5Q78 315 77 322Q73 332 74.5 334.0Q76 336 76 338Q69 351 71.0 353.5Q73 356 75 358Q71 368 72.5 370.0Q74 372 72 375Q73 378 74.0 381.0Q75 384 74 389Q70 398 72.5 399.5Q75 401 76 406Q76 418 71 426Q73 430 71.5 434.5Q70 439 72 442Q69 452 67.5 454.0Q66 456 65 459Q65 464 69 472Q68 476 69.5 479.0Q71 482 73 485Q69 495 69.5 496.5Q70 498 69 502Q72 510 69.5 512.0Q67 514 65 517Q65 528 70.0 530.0Q75 532 77 537Q75 549 72.0 549.5Q69 550 69 554Q70 558 72.0 559.5Q74 561 75 564Q72 572 74.0 572.5Q76 573 76 577Q76 582 73.0 583.0Q70 584 71 589Q76 596 74.0 597.5Q72 599 72 602Q73 611 71.5 613.0Q70 615 68 618Q68 625 70 629Q69 636 69 641Q67 644 65.5 648.0Q64 652 66 657Q58 664 57.0 665.5Q56 667 58 669Q53 672 47.0 674.0Q41 676 39 681Q40 691 35.5 691.0Q31 691 29 695Q28 700 29.5 701.5Q31 703 31 706Q26 709 15 709Q25 722 31.5 727.5Q38 733 47 736Q50 724 51.0 725.5Q52 727 54 726Q67 721 71.5 723.5Q76 726 81 727Q92 725 96.5 726.5Q101 728 106 730Q110 729 114.0 729.0Q118 729 118 725Q123 727 129.5 728.0Q136 729 141 724Q146 727 155.5 728.0Q165 729 167 720Q171 720 179 722Q181 723 184.0 724.0Q187 725 190 723Q192 719 189.5 717.0Q187 715 186 712Q196 704 194.5 700.0Q193 696 190 694Q193 683 191.5 682.0Q190 681 189 680Q193 672 189.0 666.0Q185 660 182 655Q184 653 188.0 652.0Q192 651 194 647Q188 638 190.5 637.0Q193 636 194 634Q191 622 193.0 620.5Q195 619 195 615Q193 607 193.5 605.0Q194 603 195 601Q195 585 194.5 577.5Q194 570 196 562Q197 547 196.0 540.5Q195 534 194 526Q203 510 198.5 503.5Q194 497 196 490Q201 492 206.0 495.5Q211 499 210 506Q219 516 217.5 517.5Q216 519 218 521Q228 530 232 538Q236 551 239.5 557.0Q243 563 249 567Q253 578 262 587Q263 595 262.5 596.0Q262 597 262 599Q270 612 273.5 615.0Q277 618 279 625Q281 627 283.0 629.0Q285 631 287 633Q291 643 296.0 645.0Q301 647 303 653Q302 657 299.0 658.0Q296 659 296 663Q297 668 301.5 667.5Q306 667 309 666Q309 677 315.5 682.5Q322 688 324 698Q329 706 330.5 708.5Q332 711 332 715Q338 723 342 726Q352 724 355 725Q368 727 370 725L385 730Q397 733 398.5 732.0Q400 731 402 730Q413 726 420.5 729.0Q428 732 439 733Q444 726 442.5 725.0Q441 724 441 722Q446 723 449.5 725.0Q453 727 460 726Q467 729 477.5 730.5Q488 732 496 726Q504 730 512.0 732.5Q520 735 531 736Q537 726 533.0 723.0Q529 720 530 715Q520 707 512.0 705.0Q504 703 499 698Q491 696 485.5 693.0Q480 690 472 690Q463 682 462.5 680.0Q462 678 461 676Q453 670 446.0 663.5Q439 657 434 648Q425 646 425.0 643.5Q425 641 424 639Q419 632 418.5 630.5Q418 629 418 627Q418 616 411.5 611.5Q405 607 402 599Q393 594 393 580Q391 578 389.0 575.0Q387 572 385 570Q383 562 381.5 559.5Q380 557 379 553Q375 549 369.5 547.0Q364 545 359 542Q359 533 357.5 532.0Q356 531 355 529Q354 524 355.0 521.0Q356 518 352 516Q347 506 345.5 505.5Q344 505 343 503Q343 491 334 488Q333 483 331.0 480.5Q329 478 327 475Q320 466 317.0 465.5Q314 465 312 463Q306 452 308.0 451.5Q310 451 309 447Q299 440 296 433Q297 424 295.0 423.0Q293 422 292 419Q304 417 302.0 415.0Q300 413 299 410Q309 405 308.5 400.5Q308 396 307 393Q309 391 311.5 389.0Q314 387 315 383Q325 375 323.0 369.5Q321 364 319 358Q332 355 332 354Q341 354 341.0 346.0Q341 338 339 332Q354 328 351.5 320.0Q349 312 347 306Q349 301 354.5 299.5Q360 298 364 294Q367 289 365.0 283.0Q363 277 360 272Q371 273 371.5 270.0Q372 267 374 265Q382 261 385.0 260.0Q388 259 389 255Q388 241 390.5 240.0Q393 239 395 236Q398 224 401.0 219.5Q404 215 403 207Q406 206 409.0 205.0Q412 204 414 202Q416 193 417.5 191.5Q419 190 421 188Q422 178 424.0 175.5Q426 173 428 169Q427 165 428.0 162.0Q429 159 429 155Q432 155 435.5 154.0Q439 153 441 151Q440 146 442.0 143.5Q444 141 445 139Q446 134 444.5 129.0Q443 124 446 120Q451 118 456.5 118.5Q462 119 466 116Q468 107 465.5 105.0Q463 103 463 99Q469 90 468.0 89.0Q467 88 467 86Q473 78 470 68Q479 62 481.0 59.5Q483 57 485 54Q487 45 490.0 40.0Q493 35 497 30Q497 22 499 19Q503 21 508.0 21.5Q513 22 515 17Q518 10 521.5 10.0Q525 10 525 6Q527 -2 532.5 -2.0Q538 -2 540 -6Q540 -10 539.5 -13.5Q539 -17 541 -19Q553 -17 553.5 -24.5Q554 -32 548 -37Q550 -39 556.0 -39.0Q562 -39 564 -41Q569 -49 574.0 -49.5Q579 -50 581 -53Q580 -65 582.0 -66.5Q584 -68 583 -72Q589 -81 596 -88Q602 -89 607.0 -89.5Q612 -90 615 -94Z"/>
  </g>
</svg>
